<mxfile host="app.diagrams.net" modified="2021-07-16T08:36:42.463Z" agent="5.0 (X11; Linux x86_64) AppleWebKit/537.36 (KHTML, like Gecko) Chrome/91.0.4472.114 Safari/537.36" etag="c78fk8IIkWr1xS0I-Qhx" version="14.8.5" type="github">
  <diagram id="hpZ2ijfec3fR8u717P_D" name="Page-1">
    <mxGraphModel dx="868" dy="494" grid="1" gridSize="10" guides="1" tooltips="1" connect="1" arrows="1" fold="1" page="1" pageScale="1" pageWidth="827" pageHeight="1169" math="0" shadow="0">
      <root>
        <mxCell id="0" />
        <mxCell id="1" parent="0" />
        <mxCell id="o0RG13xBRZ82Ae1Whbt0-1" value="START" style="ellipse;whiteSpace=wrap;html=1;" vertex="1" parent="1">
          <mxGeometry x="300" y="40" width="120" height="80" as="geometry" />
        </mxCell>
        <mxCell id="o0RG13xBRZ82Ae1Whbt0-2" value="numbers = [ ]" style="rounded=0;whiteSpace=wrap;html=1;" vertex="1" parent="1">
          <mxGeometry x="300" y="160" width="120" height="60" as="geometry" />
        </mxCell>
        <mxCell id="o0RG13xBRZ82Ae1Whbt0-3" value="size = numbers.size" style="rounded=0;whiteSpace=wrap;html=1;" vertex="1" parent="1">
          <mxGeometry x="300" y="250" width="120" height="60" as="geometry" />
        </mxCell>
        <mxCell id="o0RG13xBRZ82Ae1Whbt0-4" value="i&amp;nbsp;&amp;lt; size-1" style="rhombus;whiteSpace=wrap;html=1;" vertex="1" parent="1">
          <mxGeometry x="320" y="340" width="80" height="80" as="geometry" />
        </mxCell>
        <mxCell id="o0RG13xBRZ82Ae1Whbt0-5" value="false" style="text;html=1;align=center;verticalAlign=middle;resizable=0;points=[];autosize=1;strokeColor=none;" vertex="1" parent="1">
          <mxGeometry x="400" y="360" width="40" height="20" as="geometry" />
        </mxCell>
        <mxCell id="o0RG13xBRZ82Ae1Whbt0-6" value="true" style="text;html=1;align=center;verticalAlign=middle;resizable=0;points=[];autosize=1;strokeColor=none;" vertex="1" parent="1">
          <mxGeometry x="310" y="410" width="40" height="20" as="geometry" />
        </mxCell>
        <mxCell id="o0RG13xBRZ82Ae1Whbt0-8" value="p numbers" style="rounded=0;whiteSpace=wrap;html=1;" vertex="1" parent="1">
          <mxGeometry x="300" y="460" width="120" height="60" as="geometry" />
        </mxCell>
        <mxCell id="o0RG13xBRZ82Ae1Whbt0-9" value="&lt;span&gt;1&lt;/span&gt;&amp;lt; j&lt;span&gt;&amp;nbsp;&amp;lt; size-1-i&lt;/span&gt;" style="rhombus;whiteSpace=wrap;html=1;" vertex="1" parent="1">
          <mxGeometry x="310" y="550" width="100" height="100" as="geometry" />
        </mxCell>
        <mxCell id="o0RG13xBRZ82Ae1Whbt0-11" value="false" style="text;html=1;align=center;verticalAlign=middle;resizable=0;points=[];autosize=1;strokeColor=none;" vertex="1" parent="1">
          <mxGeometry x="400" y="575" width="40" height="20" as="geometry" />
        </mxCell>
        <mxCell id="o0RG13xBRZ82Ae1Whbt0-12" value="true" style="text;html=1;align=center;verticalAlign=middle;resizable=0;points=[];autosize=1;strokeColor=none;" vertex="1" parent="1">
          <mxGeometry x="310" y="640" width="40" height="20" as="geometry" />
        </mxCell>
      </root>
    </mxGraphModel>
  </diagram>
</mxfile>
